<mxfile host="app.diagrams.net" agent="Mozilla/5.0 (Windows NT 10.0; Win64; x64) AppleWebKit/537.36 (KHTML, like Gecko) Chrome/140.0.0.0 Safari/537.36 Edg/140.0.0.0" version="28.2.3">
  <diagram name="ページ1" id="JU8Bum3IrdVLvTearHB1">
    <mxGraphModel dx="622" dy="368" grid="1" gridSize="10" guides="1" tooltips="1" connect="1" arrows="1" fold="1" page="1" pageScale="1" pageWidth="827" pageHeight="1169" math="0" shadow="0">
      <root>
        <mxCell id="0" />
        <mxCell id="1" parent="0" />
        <mxCell id="UZdzbWPIgIT9htCRsip9-1" value="学生&lt;div&gt;教職員&lt;/div&gt;" style="shape=umlActor;verticalLabelPosition=bottom;verticalAlign=top;html=1;outlineConnect=0;" parent="1" vertex="1">
          <mxGeometry x="40" y="180" width="60" height="100" as="geometry" />
        </mxCell>
        <mxCell id="UZdzbWPIgIT9htCRsip9-27" value="" style="edgeStyle=orthogonalEdgeStyle;rounded=0;orthogonalLoop=1;jettySize=auto;html=1;" parent="1" source="UZdzbWPIgIT9htCRsip9-2" target="UZdzbWPIgIT9htCRsip9-25" edge="1">
          <mxGeometry relative="1" as="geometry" />
        </mxCell>
        <mxCell id="UZdzbWPIgIT9htCRsip9-2" value="予約受付画面" style="shape=umlBoundary;whiteSpace=wrap;html=1;" parent="1" vertex="1">
          <mxGeometry x="120" y="280" width="100" height="80" as="geometry" />
        </mxCell>
        <mxCell id="UZdzbWPIgIT9htCRsip9-3" value="貸し出し画面表示" style="ellipse;shape=umlControl;whiteSpace=wrap;html=1;" parent="1" vertex="1">
          <mxGeometry x="374" y="110" width="80" height="90" as="geometry" />
        </mxCell>
        <mxCell id="UZdzbWPIgIT9htCRsip9-4" value="予約完了画面" style="shape=umlBoundary;whiteSpace=wrap;html=1;" parent="1" vertex="1">
          <mxGeometry x="500" y="330" width="100" height="80" as="geometry" />
        </mxCell>
        <mxCell id="UZdzbWPIgIT9htCRsip9-6" value="&lt;div&gt;図書館&lt;/div&gt;システム&lt;div&gt;メニュー&lt;/div&gt;" style="shape=umlBoundary;whiteSpace=wrap;html=1;" parent="1" vertex="1">
          <mxGeometry x="190" y="100" width="110" height="90" as="geometry" />
        </mxCell>
        <mxCell id="UZdzbWPIgIT9htCRsip9-7" value="" style="endArrow=open;endFill=1;endSize=12;html=1;rounded=0;entryX=0.735;entryY=0.083;entryDx=0;entryDy=0;entryPerimeter=0;" parent="1" source="UZdzbWPIgIT9htCRsip9-3" target="UZdzbWPIgIT9htCRsip9-2" edge="1">
          <mxGeometry width="160" relative="1" as="geometry">
            <mxPoint x="420" y="310" as="sourcePoint" />
            <mxPoint x="580" y="310" as="targetPoint" />
            <Array as="points">
              <mxPoint x="320" y="210" />
            </Array>
          </mxGeometry>
        </mxCell>
        <mxCell id="UZdzbWPIgIT9htCRsip9-8" value="" style="endArrow=open;endFill=1;endSize=12;html=1;rounded=0;exitX=0.972;exitY=0.557;exitDx=0;exitDy=0;exitPerimeter=0;entryX=-0.01;entryY=0.499;entryDx=0;entryDy=0;entryPerimeter=0;" parent="1" source="UZdzbWPIgIT9htCRsip9-6" target="UZdzbWPIgIT9htCRsip9-3" edge="1">
          <mxGeometry width="160" relative="1" as="geometry">
            <mxPoint x="304" y="260" as="sourcePoint" />
            <mxPoint x="464" y="260" as="targetPoint" />
          </mxGeometry>
        </mxCell>
        <mxCell id="UZdzbWPIgIT9htCRsip9-9" value="" style="endArrow=open;endFill=1;endSize=12;html=1;rounded=0;exitX=0.75;exitY=0.1;exitDx=0;exitDy=0;exitPerimeter=0;entryX=0.018;entryY=0.519;entryDx=0;entryDy=0;entryPerimeter=0;" parent="1" source="UZdzbWPIgIT9htCRsip9-1" target="UZdzbWPIgIT9htCRsip9-6" edge="1">
          <mxGeometry width="160" relative="1" as="geometry">
            <mxPoint x="220" y="220" as="sourcePoint" />
            <mxPoint x="380" y="220" as="targetPoint" />
          </mxGeometry>
        </mxCell>
        <mxCell id="UZdzbWPIgIT9htCRsip9-13" value="&lt;div&gt;予約カード&lt;/div&gt;学生証&lt;div&gt;職員証&lt;br&gt;&lt;div&gt;学生番号提示&lt;/div&gt;&lt;/div&gt;" style="text;strokeColor=none;align=center;fillColor=none;html=1;verticalAlign=middle;whiteSpace=wrap;rounded=0;" parent="1" vertex="1">
          <mxGeometry x="110" y="180" width="80" height="40" as="geometry" />
        </mxCell>
        <mxCell id="UZdzbWPIgIT9htCRsip9-18" value="図書館&lt;div&gt;システム&lt;/div&gt;" style="shape=umlBoundary;whiteSpace=wrap;html=1;" parent="1" vertex="1">
          <mxGeometry x="530" y="140" width="100" height="80" as="geometry" />
        </mxCell>
        <mxCell id="UZdzbWPIgIT9htCRsip9-19" value="" style="endArrow=block;startArrow=block;endFill=1;startFill=1;html=1;rounded=0;exitX=0.998;exitY=0.613;exitDx=0;exitDy=0;exitPerimeter=0;entryX=-0.003;entryY=0.458;entryDx=0;entryDy=0;entryPerimeter=0;" parent="1" source="UZdzbWPIgIT9htCRsip9-3" target="UZdzbWPIgIT9htCRsip9-18" edge="1">
          <mxGeometry width="160" relative="1" as="geometry">
            <mxPoint x="310" y="280" as="sourcePoint" />
            <mxPoint x="470" y="280" as="targetPoint" />
          </mxGeometry>
        </mxCell>
        <mxCell id="UZdzbWPIgIT9htCRsip9-23" value="貸し出し画面をクリック" style="text;html=1;align=center;verticalAlign=middle;whiteSpace=wrap;rounded=0;" parent="1" vertex="1">
          <mxGeometry x="70" y="100" width="90" height="50" as="geometry" />
        </mxCell>
        <mxCell id="UZdzbWPIgIT9htCRsip9-24" value="予約したい書名と&lt;div&gt;予約カード&lt;/div&gt;&lt;div&gt;（学生証・職員証）持参&lt;/div&gt;" style="text;html=1;align=center;verticalAlign=middle;whiteSpace=wrap;rounded=0;" parent="1" vertex="1">
          <mxGeometry x="230" y="330" width="120" height="70" as="geometry" />
        </mxCell>
        <mxCell id="UZdzbWPIgIT9htCRsip9-25" value="予約受付画面表示" style="ellipse;shape=umlControl;whiteSpace=wrap;html=1;" parent="1" vertex="1">
          <mxGeometry x="340" y="275" width="80" height="90" as="geometry" />
        </mxCell>
        <mxCell id="UZdzbWPIgIT9htCRsip9-29" value="利用者情報&lt;div&gt;表示&lt;/div&gt;" style="ellipse;shape=umlControl;whiteSpace=wrap;html=1;" parent="1" vertex="1">
          <mxGeometry x="320" y="400" width="100" height="110" as="geometry" />
        </mxCell>
        <mxCell id="UZdzbWPIgIT9htCRsip9-30" value="" style="endArrow=open;endFill=1;endSize=12;html=1;rounded=0;exitX=0.716;exitY=0.969;exitDx=0;exitDy=0;exitPerimeter=0;entryX=-0.014;entryY=0.451;entryDx=0;entryDy=0;entryPerimeter=0;" parent="1" source="UZdzbWPIgIT9htCRsip9-2" target="UZdzbWPIgIT9htCRsip9-29" edge="1">
          <mxGeometry width="160" relative="1" as="geometry">
            <mxPoint x="270" y="390" as="sourcePoint" />
            <mxPoint x="430" y="390" as="targetPoint" />
          </mxGeometry>
        </mxCell>
        <mxCell id="UZdzbWPIgIT9htCRsip9-31" value="" style="endArrow=open;endFill=1;endSize=12;html=1;rounded=0;entryX=0.02;entryY=0.569;entryDx=0;entryDy=0;entryPerimeter=0;exitX=1.011;exitY=0.565;exitDx=0;exitDy=0;exitPerimeter=0;" parent="1" source="UZdzbWPIgIT9htCRsip9-25" target="UZdzbWPIgIT9htCRsip9-4" edge="1">
          <mxGeometry width="160" relative="1" as="geometry">
            <mxPoint x="300" y="390" as="sourcePoint" />
            <mxPoint x="460" y="390" as="targetPoint" />
          </mxGeometry>
        </mxCell>
        <mxCell id="UZdzbWPIgIT9htCRsip9-32" value="" style="endArrow=open;endFill=1;endSize=12;html=1;rounded=0;exitX=1.021;exitY=0.491;exitDx=0;exitDy=0;exitPerimeter=0;" parent="1" source="UZdzbWPIgIT9htCRsip9-29" target="UZdzbWPIgIT9htCRsip9-4" edge="1">
          <mxGeometry width="160" relative="1" as="geometry">
            <mxPoint x="300" y="390" as="sourcePoint" />
            <mxPoint x="490" y="380" as="targetPoint" />
          </mxGeometry>
        </mxCell>
        <mxCell id="mixMmdJn3MKHJvzJjKCs-1" value="予約された本の取り置き" style="ellipse;shape=umlControl;whiteSpace=wrap;html=1;" vertex="1" parent="1">
          <mxGeometry x="640" y="340" width="90" height="90" as="geometry" />
        </mxCell>
        <mxCell id="mixMmdJn3MKHJvzJjKCs-2" value="" style="endArrow=open;endFill=1;endSize=12;html=1;rounded=0;exitX=1.015;exitY=0.628;exitDx=0;exitDy=0;exitPerimeter=0;" edge="1" parent="1" source="UZdzbWPIgIT9htCRsip9-4" target="mixMmdJn3MKHJvzJjKCs-1">
          <mxGeometry width="160" relative="1" as="geometry">
            <mxPoint x="420" y="360" as="sourcePoint" />
            <mxPoint x="580" y="360" as="targetPoint" />
          </mxGeometry>
        </mxCell>
      </root>
    </mxGraphModel>
  </diagram>
</mxfile>
